# xmcd
#
# Track frame offsets:
#	150
#	15322
#	31187
#	46468
#	62396
#	83966
#	109881
#	119274
#	138135
#	153519
#
# Disc length: 2230 seconds
#
# Revision: 0
# Processed by: cddbd v1.5.2PL0 Copyright (c) Steve Scherf et al.
# Submitted via: EZCDAudioConverter 2.1.7.1
#
DISCID=7308b40a
DTITLE=Kenny Knight - Crossroads
DYEAR=1900
DGENRE=
TTITLE0=Does He Hide
TTITLE1=One Down
TTITLE2=All My Memories
TTITLE3=Carry Me Down
TTITLE4=Jean
TTITLE5=To Be Free
TTITLE6=Baby's Back
TTITLE7=You Can Tell Me I'm Wrong
TTITLE8=Whiskey
TTITLE9=America
EXTD=
EXTT0=
EXTT1=
EXTT2=
EXTT3=
EXTT4=
EXTT5=
EXTT6=
EXTT7=
EXTT8=
EXTT9=
PLAYORDER=
